M48
;Layer_Color=9474304
;FILE_FORMAT=2:5
INCH,LZ
;TYPE=PLATED
T1F00S00C0.02559
T2F00S00C0.03346
T3F00S00C0.03543
T4F00S00C0.04016
T5F00S00C0.10000
T6F00S00C0.12500
%
T01
X009Y009
X0095
X01
X007Y018
X0065
X006
Y02
X0055
X005
Y022
X0045
X004
T02
X003Y0085
Y0095
X006
Y0085
X011Y009
X014
X015
X018
X005Y015
X004
X003
Y018
X004
X005
Y023
X006Y022
Y025
X005Y026
X004Y024
Y027
Y0295
X007
T03
X0055Y003
X0065
X0075
X0085
X0095
X0105
X0115
X0125
X0135
X0145
X0155
X0165Y013
Y014
Y015
Y016
Y017
Y018
Y019
Y02
Y021
Y022
Y023
Y024
X0085
Y023
Y022
Y021
Y02
Y019
Y018
Y017
Y016
Y015
Y014
Y013
Y025
Y026
Y027
Y028
T04
X003Y0075
X004
X005
X006
X007
X008
X006Y0105
X005
X004
X003
X0105Y0075
X0115
X0145
X0155
X006Y0135
X005
X004
X003
Y028
X004
X005
X006
T05
X016Y0115
X009
Y0295
X016
T06
X0015Y0015
X0205
X0015Y03
X0205
M30
